<svg xmlns="http://www.w3.org/2000/svg" version="1.1" xmlns:xlink="http://www.w3.org/1999/xlink" width="512" height="512" x="0" y="0" viewBox="0 0 25 25" style="enable-background:new 0 0 512 512" xml:space="preserve"><g><path d="M19.794 17.078a9.941 9.941 0 0 0 1.705-5.578c0-5.513-4.487-10-10-10s-10 4.487-10 10 4.486 10 10 10a9.94 9.94 0 0 0 5.573-1.702l3.14 3.14c.75.75 1.97.75 2.72 0 .76-.75.76-1.97 0-2.73zM11.499 19.5c-4.412 0-8-3.589-8-8s3.588-8 8-8 8 3.59 8 8-3.59 8-8 8z" fill="#949494" opacity="1" data-original="#000000"></path><path d="M6.493 9.507h2v5.987h-2zM10.499 7.507h2v7.987h-2zM14.504 11.5h2v3.994h-2z" fill="#949494" opacity="1" data-original="#000000"></path></g></svg>