<svg xmlns="http://www.w3.org/2000/svg" version="1.1" xmlns:xlink="http://www.w3.org/1999/xlink" width="512" height="512" x="0" y="0" viewBox="0 0 100 100" style="enable-background:new 0 0 512 512" xml:space="preserve"><g><path d="M86.326 24.363A44.802 44.802 0 0 0 65.853 8.52C57.66 5.342 48.677 4.775 40.117 6.707S23.71 13.134 17.73 19.523C11.656 25.92 7.706 33.904 6.173 42.602c-1.45 8.595-.33 17.513 3.243 25.543s9.473 14.807 16.96 19.461 16.075 7.045 24.885 6.782c8.81-.263 17.283-3.126 24.512-8.223 9.605-6.823 16.149-17.212 18.072-28.765 1.932-11.46-.789-23.424-7.519-33.037zM70.428 14.2c.43-.416.946-.934 1.284-1.342 1.095.65 2.19 1.298 3.2 2.05.172.83-.122 1.703-.62 2.407-.422.51-.87.74-1.22.02-.358-.811-.935-.945-1.782-.96-.577-.134-1.162-.36-1.494-.893-.017-.187.379-.976.632-1.282zm-2.605 7.294a1.3 1.3 0 0 0 1.042.09 21.65 21.65 0 0 0 3.104-1.983c.422-.51 1.057-.757 1.642-.53.967.285 2.009.376 2.923.102.821-.265 1.523-.801 1.927-1.497 2.557 2.204 4.767 4.722 6.715 7.453a53.962 53.962 0 0 1 3.006 4.981l-.373.035a37.101 37.101 0 0 1-2.271-.163c.253-.305.524-.425.506-.611.152-.39.379-.976.26-1.246-.23-.449-.63-.693-1.104-.743-1.034.003-2.059.1-2.964.467-.542.238-.946.934-1.537 1.648a5.742 5.742 0 0 1-1.75-1.622c-.655-.972-1.666-1.723-2.819-1.991-.483-.143-1.185.393-1.718.725-1.4-.902-2.932-.195-4.201.3-1.54.615-2.34 2.1-3.048 3.576-.227.586-.556 1.086-.996 1.41-.43.416-.955.841-1.66.343-.78-.302-1.324-1.097-1.412-2.029.038-1.601.03-1.694 1.605-1.936.279-.026.55-.146.83-.172 1.743-.446 2.349-2.006 1.1-3.3a6.63 6.63 0 0 1-1.9-3.204c-.29-1.101-1.178-.548-1.84-.58l1.84-2.428c.222.355.434.617.749.963.722.685 1.537 1.36 2.344 1.942zM25.043 40.36c-2.473.702-5.524.237-7.058 2.919-1.054 1.79-1.633 3.63-.695 5.61.946 2.073 2.964 2.542 4.696.97l1.03-1.037-.24 1.432c-.193.958.36 1.846 1.327 2.131 1.459.521 1.68.877 1.15 2.242-1.68-.876-3.462-1.837-5.226-2.611a6.523 6.523 0 0 0-1.823-.393c-1.601-.037-3.153-.55-4.367-1.47-.315-.346-.545-.794-.775-1.243-.358-.812-.716-1.624-1.252-2.326-1.369-1.563-2.906-2.923-4.089-4.504 2.07-11.003 8.302-20.705 17.374-27.196.972-.655 1.944-1.31 2.926-1.872-.067.288-.05.474-.117.762-.067.289.053.56.163.737.102.084.475.05.653-.061 1.065-.664 2.436-1.075 2.567-2.685.067-.288.702-.536 1.15-.766.222.355.434.617.562.981.137.457.46.897.784 1.337.527.608 1.383.716 1.898.197.702-.535.445-1.263.096-1.982-.323-.44-.469-.99-.242-1.576.236-.492.675-.815 1.226-.96 1.455-.513 2.929-.84 4.402-1.166-.27.12-.533.332-.795.545-1.226.96-.824 2.239.795 2.463 1.415.055 2.62.882 3.387 2.032.11.177.332.533.247.635-.76.917-1.537 1.648-2.407 2.387-.262.213-1.043-.09-1.45-.427-.196-.076-.172-.83.08-1.136.574-.9.682-1.756-.32-2.414-.908-.666-2.026-.561-2.905.085-.938 1.028-2.283 1.718-2.702 3.261-.329.501-.87.74-1.43.793-2.466-.239-4.326.97-5.863 2.618-.515.518-.734 1.196-.58 1.84.155.643.673 1.159 1.352 1.377.492.236 1.077.463 1.56.605.857.108 1.486.8 1.657 1.63.137.458.554.889 1.028.938.475.05 1.016-.19 1.252-.681.978-1.596 2.55-2.872 2.74-4.863.005-.94.783-1.671 1.714-1.759.644-.154 1.33.157 1.578.792.359.812 1.25 1.293 2.164 1.019.55-.146.856.107 1.188.64.247.635.673 1.159 1.182 1.581s.85 1.048.827 1.802c.061.652.309 1.287.455 1.837l.265.821c-.28.027-.635.248-.83.172-.204-.169-.323-.44-.35-.719.064-1.322-.25-1.668-1.555-1.546l-1.863.175c-1.398.131-1.988.845-1.857 2.242.06.652.335 1.567.099 2.059-.338.407-1.278.402-2.015.565-.28.026-.643.154-.905.367-1.715 1.759-4.134 3.02-5.1 5.742-.303.78-.801 1.485-1.41 2.012-1.394 1.165-3.001 2.068-2.978 4.321-.492-.236-.89-.48-1.383-.716-.23-.448-.611-.506-.993-.565zm32.324 26.95c-1.333 1.816-1.785 4.02-1.481 6.248.268 1.854-.323 2.568-2.032 3.386-.728.256-1.337.783-1.843 1.395-.507.611-.716 1.383-.74 2.137a17.345 17.345 0 0 1-1.292 4.257c-.151.39-.498.705-.853.926-.803.451-1.292 1.25-1.307 2.096-.05.475-.294.874-.547 1.18-1.115 1.138-1.738 2.513-1.97 4.038-1.62-.224-3.238-.448-4.782-.867-.273-.914-.454-1.837-.72-2.658-.025-.28.042-.568.015-.847.015-.848.03-1.695-.143-2.525-.259-1.761-.696-3.412-.955-5.173a8.286 8.286 0 0 1-.201-2.143c-.012-1.127-.303-2.228-.95-3.107-.646-.88-1.564-1.639-2.632-2.009-.687-.311-1.206-.826-1.64-1.443-1.062-1.31-2.05-2.816-2.935-4.237a6.078 6.078 0 0 1-1.016-2.818c-.097-1.025.095-1.983.567-2.967.32-.594.632-1.28.943-1.968a2.882 2.882 0 0 0 .113-1.797c-1.124-1.962.79-2.611 1.642-3.537.422-.51.964-.749 1.616-.81s1.237.166 1.654.597c.399.244.975.378 1.432.241 1.651-.437 2.865.483 4.155 1.208.993.565 2.07 1.028 3.13 1.304.568.04 1.06.277 1.468.614.408.338.73.778.97 1.32.247.634.588 1.26 1.098 1.682.51.422 1.103.742 1.866.859 1.56.605 3.104 1.024 4.723 1.248 1.06.277 1.96.85 2.69 1.627.647.88.557 1.922-.043 2.542zm-2.533-52.022c-.414.603-.734 1.197-1.599.996-.856-.107-1.485-.8-1.563-1.639a36.18 36.18 0 0 1-.14-4.498c.153-2.364-.688-3.32-3.017-3.1-.56.052-1.025.095-1.509-.047 5.887-.365 11.88.389 17.426 2.406-.355.221-.812.358-1.167.58l-3.503 1.738c-.355.221-.71.443-1.074.57-1.65.438-2.96 1.5-3.854 2.994zM82.815 78.08c-.12-.27-.239-.541-.265-.82a23.05 23.05 0 0 0-2.126-5.629 3.42 3.42 0 0 1-.253-2.702c1.126-3.02-.06-5.634-1.777-7.916-.749-.964-1.15-2.242-1.264-3.453-.1-2.059-.304-2.227-2.321-2.696-.289-.067-.577-.134-.78-.303-1.427-1.182-2.799-.77-4.339-.156a20.774 20.774 0 0 1-4.7 1.005c-.372.035-.669-.125-.975-.379-1.453-1.461-2.906-2.923-4.19-4.588-.425-.524-.326-1.473-.294-2.134.014-.847.029-1.695-.05-2.533-.387-2.126.259-4.254 1.813-5.716.769-.824 1.334-1.817 1.796-2.894.597-1.654 1.389-3.232 3.625-3.442 2.236-.21 4.233-.961 6.359-1.349.466-.044.864.201 1.086.556.154.644.495 1.27 1.005 1.692.51.422 1.196.733 1.857.765.484.143.874.294 1.273.539.882.387 1.907.29 2.59-.431.6-.62 1.532-.708 2.313-.405 1.738.494 3.619.506 5.438-.135.55-.146 1.075-.57 1.404-1.072a22.17 22.17 0 0 1 1.153 3.276c-.288-.067-.67-.125-1.034.003-.186.017-.21.771-.174 1.144.035.373.256.728.478 1.083a24.707 24.707 0 0 0 2.009 3.383l.11.178c1.052 6.198.707 12.528-.979 18.608-1.685 6.08-4.633 11.714-8.788 16.521z" fill="#949494" opacity="1" data-original="#000000"></path><path d="M54.439 97.29C28.363 99.738 5.158 80.515 2.71 54.439S19.485 5.158 45.561 2.71 94.842 19.485 97.29 45.561 80.515 94.842 54.439 97.29zm-8.47-90.242C22.283 9.27 4.824 30.348 7.047 54.032s23.3 41.143 46.984 38.92 41.143-23.3 38.92-46.984-23.3-41.143-46.984-38.92z" fill="#949494" opacity="1" data-original="#000000"></path></g></svg>