<svg xmlns="http://www.w3.org/2000/svg" version="1.1" xmlns:xlink="http://www.w3.org/1999/xlink" width="512" height="512" x="0" y="0" viewBox="0 0 512 512" style="enable-background:new 0 0 512 512" xml:space="preserve" class=""><g><path d="M469.333 448h-10.667v-10.667c0-5.888-4.779-10.667-10.667-10.667h-32V320h10.667c17.643 0 32-14.357 32-32s-14.357-32-32-32h-11.221c-4.843-72.96-58.645-132.693-128.896-146.347-2.624-10.347-9.92-18.752-19.883-22.315V64H320c4.309 0 8.213-2.603 9.856-6.592a10.643 10.643 0 0 0-2.304-11.627L313.771 32l13.781-13.781a10.643 10.643 0 0 0 2.304-11.627A10.667 10.667 0 0 0 320 0h-64c-5.888 0-10.667 4.779-10.667 10.667v76.629c-10.048 3.584-17.749 11.968-20.331 22.443C154.965 123.541 101.376 183.189 96.533 256h-11.2c-17.643 0-32 14.357-32 32s14.357 32 32 32H96v106.667H64c-5.888 0-10.667 4.779-10.667 10.667V448H42.667c-17.643 0-32 14.357-32 32v21.333c0 5.888 4.779 10.667 10.667 10.667h469.333c5.888 0 10.667-4.779 10.667-10.667V480c-.001-17.643-14.358-32-32.001-32zm-330.666-21.333h-21.333V320h21.333zm42.666 0H160V320h21.333zm42.667 0h-21.333V320H224zm42.667 0h-21.333V320h21.333zm42.666 0H288V320h21.333zm42.667 0h-21.333V320H352zm42.667 0h-21.333V320h21.333z" fill="#949494" opacity="1" data-original="#000000"></path></g></svg>