<svg xmlns="http://www.w3.org/2000/svg" version="1.1" xmlns:xlink="http://www.w3.org/1999/xlink" width="512" height="512" x="0" y="0" viewBox="0 0 24 24" style="enable-background:new 0 0 512 512" xml:space="preserve" class=""><g><g data-name="Layer 2"><path d="M16 2H4a2.003 2.003 0 0 0-2 2v15a3.003 3.003 0 0 0 3 3h12a1 1 0 0 0 1-1V4a2.003 2.003 0 0 0-2-2zM6.5 6h3a1 1 0 0 1 0 2h-3a1 1 0 0 1 0-2zm7 12.5h-7a1 1 0 0 1 0-2h7a1 1 0 0 1 0 2zm0-3.5h-7a1 1 0 0 1 0-2h7a1 1 0 0 1 0 2zm0-3.5h-7a1 1 0 0 1 0-2h7a1 1 0 0 1 0 2z" fill="#4e4e4e" opacity="1" data-original="#000000" class=""></path><path d="M19 22h-2a1 1 0 0 1-1-1V9a1 1 0 0 1 1-1h4a1 1 0 0 1 1 1v10a3.003 3.003 0 0 1-3 3zm-1-2h1a1 1 0 0 0 1-1v-9h-2z" fill="#4e4e4e" opacity="1" data-original="#000000" class=""></path></g></g></svg>