<svg xmlns="http://www.w3.org/2000/svg" version="1.1" xmlns:xlink="http://www.w3.org/1999/xlink" width="512" height="512" x="0" y="0" viewBox="0 0 100 100" style="enable-background:new 0 0 512 512" xml:space="preserve" class=""><g><path d="M52.1 91.454h34.1c3.6 0 6.5-2.9 6.5-6.5 0-3-2.1-5.5-4.9-6.3-.1 0-.1-.2 0-.2 3.6 0 6.5-2.9 6.5-6.5 0-3-2.1-5.5-4.9-6.3-.1 0-.1-.2 0-.2 3.6 0 6.5-2.9 6.5-6.5 0-3-2.1-5.5-4.9-6.3-.1 0-.1-.2 0-.2 3.6 0 6.5-2.9 6.5-6.5s-2.9-6.5-6.5-6.5-8.8 0-13.2.1c-2.7.1-8.1.1-11.8 0-2 0-3.4-2-2.8-3.8 1.9-5.7 5.3-16.2 5.9-19.5 1.5-8-10.9-10.4-13.4-4.2-2.3 5.9-11.5 23.7-22.3 30.4-1.3.8-2.1 2.2-2.1 3.7l-.1 36.5c.1 2.5 8.7 8.8 20.9 8.8zM26 46.65v36.8c0 2.6-2.1 4.8-4.8 4.8H7.3c-2.6 0-4.8-2.1-4.8-4.8v-36.8c0-2.6 2.1-4.8 4.8-4.8h13.9c2.6 0 4.8 2.1 4.8 4.8z" fill="#767676" opacity="1" data-original="#000000"></path></g></svg>