<svg xmlns="http://www.w3.org/2000/svg" version="1.1" xmlns:xlink="http://www.w3.org/1999/xlink" width="512" height="512" x="0" y="0" viewBox="0 0 512 512" style="enable-background:new 0 0 512 512" xml:space="preserve"><g><path d="M351.8 94c0 26.5-9.1 48.7-27.2 66.9-18.1 18.1-40.4 27.2-66.9 27.2-26.4 0-48.7-9.1-66.8-27.2s-27.2-40.4-27.2-66.9 9.1-48.7 27.2-66.9S231.4 0 257.8 0c26.5 0 48.7 9.1 66.9 27.2s27.2 40.4 27.1 66.8z" fill="#2d3748" opacity="1" data-original="#000000"></path><path d="M475.8 193.4v216.4c0 11.9-9.2 21.7-21 22.5-32.5 2.3-64.5 9.7-94.7 21.9-32.4 13-62.7 30.8-89.9 52.8-8.3 6.6-20 6.6-28.3 0-27.2-22-57.5-39.8-89.9-52.8-30.2-12.2-62.2-19.6-94.7-21.9-11.8-.8-21-10.7-21-22.5V193.4c.1-12.5 10.2-22.6 22.7-22.6.8 0 1.5 0 2.3.1 29.8 3 59.4 11.3 88.9 25 37.6 17.5 73 41.9 105.9 73.3 33-31.3 68.3-55.8 105.9-73.3 29.4-13.7 59.1-22 88.9-25 12.4-1.3 23.6 7.7 24.9 20.2-.1.8 0 1.6 0 2.3z" fill="#2d3748" opacity="1" data-original="#000000"></path></g></svg>