<svg xmlns="http://www.w3.org/2000/svg" version="1.1" xmlns:xlink="http://www.w3.org/1999/xlink" width="512" height="512" x="0" y="0" viewBox="0 0 512 512" style="enable-background:new 0 0 512 512" xml:space="preserve" class=""><g><g data-name="Layer 9"><path d="M2.6 466.49c1.85 9.55 10.57 18.78 20.09 20.88a117.57 117.57 0 0 0 24.38 2.4 118.39 118.39 0 0 0 24.39-2.4C81 485.27 89.7 476 91.55 466.49c1.17-5.82 2.6-22 2.48-32.78.12-10.73-1.31-27-2.48-32.77-1.85-9.55-10.55-18.78-20.09-20.89a118.39 118.39 0 0 0-24.39-2.4 118.27 118.27 0 0 0-24.38 2.4c-9.52 2.11-18.24 11.34-20.09 20.89C1.43 406.76 0 423 .12 433.71 0 444.45 1.43 460.67 2.6 466.49zM281.16 466.49c1.86 9.55 10.58 18.78 20.1 20.88a125 125 0 0 0 48.76 0c9.53-2.1 18.25-11.33 20.1-20.88 1.16-5.82 2.6-54.41 2.48-65.14.12-10.73-1.32-59.32-2.48-65.14-1.85-9.54-10.57-18.77-20.1-20.88a125 125 0 0 0-48.76 0c-9.52 2.11-18.24 11.34-20.1 20.88-1.16 5.82-2.6 54.41-2.48 65.14-.12 10.73 1.32 59.32 2.48 65.14zM141.88 466.49c1.85 9.55 10.57 18.78 20.1 20.88a125 125 0 0 0 48.76 0c9.52-2.1 18.24-11.33 20.1-20.88 1.16-5.82 2.6-86.77 2.48-97.5.12-10.73-1.32-91.68-2.48-97.5-1.86-9.55-10.58-18.78-20.1-20.89a125.54 125.54 0 0 0-48.76 0c-9.53 2.11-18.25 11.34-20.1 20.89-1.16 5.82-2.6 86.77-2.48 97.5-.12 10.73 1.32 91.68 2.48 97.5zM420.45 466.49c1.85 9.55 10.57 18.78 20.09 20.88a125.08 125.08 0 0 0 48.77 0c9.52-2.1 18.24-11.33 20.09-20.88 1.17-5.82 2.6-129.29 2.48-140 .12-10.73-1.31-134.2-2.48-140-1.85-9.55-10.57-18.78-20.09-20.89a125.59 125.59 0 0 0-48.77 0c-9.52 2.11-18.24 11.34-20.09 20.89-1.17 5.82-2.6 129.29-2.48 140-.12 10.71 1.31 134.18 2.48 140z" fill="#154083" opacity="1" data-original="#000000" class=""></path><path d="M464.93 22.23a39.1 39.1 0 0 0-36.86 52.2l-87 98.73a39.1 39.1 0 0 0-37.74 3.84l-78.17-48.36a39.11 39.11 0 0 0-77.91 4.86c0 1 .05 2.06.13 3.07l-90.82 97.07a39.53 39.53 0 0 0-9.49-1.16 39.1 39.1 0 1 0 37.24 27.12l85-90.9a39.11 39.11 0 0 0 41.16-4.46l76.1 47.08a39.11 39.11 0 0 0 78.15-2.22 38.31 38.31 0 0 0-.32-4.94l92.19-104.61a39.11 39.11 0 1 0 8.34-77.32z" fill="#154083" opacity="1" data-original="#000000" class=""></path></g></g></svg>